<mxfile host="app.diagrams.net" modified="2020-12-13T21:05:12.712Z" agent="5.0 (Windows NT 10.0; Win64; x64) AppleWebKit/537.36 (KHTML, like Gecko) Chrome/87.0.4280.88 Safari/537.36" etag="1GRQ9WT6r80e9keF4QRO" version="13.9.2" type="github">
  <diagram id="RaWaHdhdfacx72nGX-lQ" name="Page-1">
    <mxGraphModel dx="448" dy="752" grid="1" gridSize="10" guides="1" tooltips="1" connect="1" arrows="1" fold="1" page="1" pageScale="1" pageWidth="827" pageHeight="1169" math="0" shadow="0">
      <root>
        <mxCell id="0" />
        <mxCell id="1" parent="0" />
        <mxCell id="1OfxkPbP5e38ZYz30B3U-1" value="&lt;font style=&quot;font-size: 16px&quot;&gt;A&lt;/font&gt;" style="ellipse;whiteSpace=wrap;html=1;aspect=fixed;" vertex="1" parent="1">
          <mxGeometry x="70" y="180" width="80" height="80" as="geometry" />
        </mxCell>
        <mxCell id="1OfxkPbP5e38ZYz30B3U-2" value="&lt;font style=&quot;font-size: 16px&quot;&gt;B&lt;/font&gt;" style="ellipse;whiteSpace=wrap;html=1;aspect=fixed;" vertex="1" parent="1">
          <mxGeometry x="310" y="180" width="80" height="80" as="geometry" />
        </mxCell>
        <mxCell id="1OfxkPbP5e38ZYz30B3U-3" value="&lt;font style=&quot;font-size: 16px&quot;&gt;C&lt;/font&gt;" style="ellipse;whiteSpace=wrap;html=1;aspect=fixed;" vertex="1" parent="1">
          <mxGeometry x="190" y="350" width="80" height="80" as="geometry" />
        </mxCell>
        <mxCell id="1OfxkPbP5e38ZYz30B3U-6" value="" style="endArrow=classic;html=1;exitX=1;exitY=0.5;exitDx=0;exitDy=0;entryX=0;entryY=0.5;entryDx=0;entryDy=0;" edge="1" parent="1" source="1OfxkPbP5e38ZYz30B3U-1" target="1OfxkPbP5e38ZYz30B3U-2">
          <mxGeometry width="50" height="50" relative="1" as="geometry">
            <mxPoint x="210" y="250" as="sourcePoint" />
            <mxPoint x="260" y="200" as="targetPoint" />
          </mxGeometry>
        </mxCell>
        <mxCell id="1OfxkPbP5e38ZYz30B3U-7" value="" style="endArrow=classic;html=1;entryX=1;entryY=0;entryDx=0;entryDy=0;exitX=0;exitY=1;exitDx=0;exitDy=0;" edge="1" parent="1" source="1OfxkPbP5e38ZYz30B3U-2" target="1OfxkPbP5e38ZYz30B3U-3">
          <mxGeometry width="50" height="50" relative="1" as="geometry">
            <mxPoint x="280" y="310" as="sourcePoint" />
            <mxPoint x="330" y="260" as="targetPoint" />
          </mxGeometry>
        </mxCell>
        <mxCell id="1OfxkPbP5e38ZYz30B3U-8" value="" style="endArrow=classic;html=1;entryX=1;entryY=1;entryDx=0;entryDy=0;exitX=0;exitY=0;exitDx=0;exitDy=0;" edge="1" parent="1" source="1OfxkPbP5e38ZYz30B3U-3" target="1OfxkPbP5e38ZYz30B3U-1">
          <mxGeometry width="50" height="50" relative="1" as="geometry">
            <mxPoint x="130" y="340" as="sourcePoint" />
            <mxPoint x="180" y="290" as="targetPoint" />
          </mxGeometry>
        </mxCell>
        <mxCell id="1OfxkPbP5e38ZYz30B3U-9" value="z" style="text;html=1;strokeColor=none;fillColor=none;align=center;verticalAlign=middle;whiteSpace=wrap;rounded=0;" vertex="1" parent="1">
          <mxGeometry x="130" y="310" width="40" height="20" as="geometry" />
        </mxCell>
        <mxCell id="1OfxkPbP5e38ZYz30B3U-10" value="State 1" style="text;html=1;align=center;verticalAlign=middle;resizable=0;points=[];autosize=1;" vertex="1" parent="1">
          <mxGeometry x="85" y="150" width="50" height="20" as="geometry" />
        </mxCell>
        <mxCell id="1OfxkPbP5e38ZYz30B3U-11" value="" style="endArrow=classic;html=1;entryX=0;entryY=0.5;entryDx=0;entryDy=0;" edge="1" parent="1" target="1OfxkPbP5e38ZYz30B3U-1">
          <mxGeometry width="50" height="50" relative="1" as="geometry">
            <mxPoint x="30" y="220" as="sourcePoint" />
            <mxPoint x="60" y="190" as="targetPoint" />
          </mxGeometry>
        </mxCell>
        <mxCell id="1OfxkPbP5e38ZYz30B3U-12" value="State 2" style="text;html=1;align=center;verticalAlign=middle;resizable=0;points=[];autosize=1;" vertex="1" parent="1">
          <mxGeometry x="325" y="150" width="50" height="20" as="geometry" />
        </mxCell>
        <mxCell id="1OfxkPbP5e38ZYz30B3U-13" value="State 3" style="text;html=1;align=center;verticalAlign=middle;resizable=0;points=[];autosize=1;" vertex="1" parent="1">
          <mxGeometry x="205" y="440" width="50" height="20" as="geometry" />
        </mxCell>
        <mxCell id="1OfxkPbP5e38ZYz30B3U-14" value="x" style="text;html=1;align=center;verticalAlign=middle;resizable=0;points=[];autosize=1;" vertex="1" parent="1">
          <mxGeometry x="220" y="190" width="20" height="20" as="geometry" />
        </mxCell>
        <mxCell id="1OfxkPbP5e38ZYz30B3U-15" value="y" style="text;html=1;align=center;verticalAlign=middle;resizable=0;points=[];autosize=1;" vertex="1" parent="1">
          <mxGeometry x="300" y="300" width="20" height="20" as="geometry" />
        </mxCell>
      </root>
    </mxGraphModel>
  </diagram>
</mxfile>
